<svg width="366" height="68" viewBox="0 0 366 68" fill="none" xmlns="http://www.w3.org/2000/svg">
<g clip-path="url(#clip0_148_501)">
<path d="M120.791 39.6984C117.912 39.6984 115.39 39.0821 113.222 37.8493C111.09 36.6166 109.42 34.9126 108.212 32.7373C107.039 30.5619 106.453 28.0602 106.453 25.2323C106.453 22.4043 107.039 19.9208 108.212 17.7817C109.42 15.6063 111.09 13.9204 113.222 12.724C115.354 11.4912 117.841 10.8749 120.684 10.8749C123.384 10.8749 125.73 11.455 127.719 12.6152C129.709 13.7391 131.255 15.3344 132.356 17.401C133.458 19.4676 134.009 21.8786 134.009 24.634C134.009 25.1416 133.991 25.613 133.955 26.048C133.92 26.4831 133.866 26.9182 133.795 27.3532H110.61V22.5675H128.625L127.24 23.8727C127.24 21.2622 126.653 19.3044 125.481 17.9992C124.308 16.694 122.674 16.0414 120.577 16.0414C118.303 16.0414 116.491 16.839 115.141 18.4343C113.826 20.0295 113.169 22.3318 113.169 25.341C113.169 28.314 113.826 30.5982 115.141 32.1934C116.491 33.7524 118.392 34.5319 120.844 34.5319C122.265 34.5319 123.509 34.26 124.575 33.7162C125.641 33.1723 126.422 32.3384 126.92 31.2145H133.262C132.374 33.825 130.864 35.8915 128.732 37.4144C126.636 38.937 123.988 39.6984 120.791 39.6984Z" fill="#D23030"/>
<path d="M93.8224 39.6984C91.2287 39.6984 89.1143 39.0821 87.48 37.8493C85.8809 36.5803 84.8859 34.8401 84.4953 32.6285L85.0281 32.5741V50.3032H78.3125V11.4187H84.8681V17.6729L84.3353 17.5641C84.8328 15.4975 85.9696 13.866 87.7465 12.6696C89.5231 11.4731 91.6906 10.8749 94.2487 10.8749C96.6649 10.8749 98.7615 11.4731 100.538 12.6696C102.35 13.8297 103.754 15.4794 104.749 17.6185C105.744 19.7576 106.241 22.2774 106.241 25.1779C106.241 28.1146 105.726 30.6707 104.695 32.846C103.665 35.0214 102.226 36.7072 100.378 37.9039C98.5305 39.1003 96.3452 39.6984 93.8224 39.6984ZM92.1168 34.0425C94.2843 34.0425 96.0077 33.2811 97.2868 31.7584C98.5658 30.1994 99.2055 28.024 99.2055 25.2323C99.2055 22.4405 98.5483 20.2833 97.2333 18.7606C95.9543 17.2378 94.2308 16.4764 92.0637 16.4764C89.9315 16.4764 88.2084 17.256 86.8937 18.815C85.579 20.3377 84.9215 22.4949 84.9215 25.2867C84.9215 28.0784 85.579 30.2356 86.8937 31.7584C88.2084 33.2811 89.9493 34.0425 92.1168 34.0425Z" fill="#D23030"/>
<path d="M72.0627 39.697C68.7227 39.697 66.253 38.8991 64.6543 37.3039C63.0909 35.6725 62.309 33.2434 62.309 30.0166V6.58228L69.078 6.58337V30.1797C69.078 31.5212 69.4334 32.5182 70.144 33.1709C70.8546 33.8234 71.974 34.1498 73.5018 34.1498C74.1058 34.1498 74.6386 34.1135 75.1008 34.041C75.598 33.9322 76.0602 33.8053 76.4864 33.6603V38.9901C76.0602 39.2075 75.4561 39.3708 74.6742 39.4795C73.8927 39.6242 73.0221 39.697 72.0627 39.697ZM57.0859 16.8013V11.4173H76.4864V16.8013H57.0859Z" fill="#D23030"/>
<path d="M44.2433 39.6984C41.3651 39.6984 38.8245 39.0821 36.6214 37.8493C34.4541 36.6166 32.7663 34.9126 31.5582 32.7373C30.3501 30.5256 29.7461 28.0059 29.7461 25.1779C29.7461 22.3499 30.3501 19.8664 31.5582 17.7273C32.7663 15.5882 34.4541 13.9204 36.6214 12.724C38.8245 11.4912 41.3651 10.8749 44.2433 10.8749C47.157 10.8749 49.6976 11.4912 51.8647 12.724C54.0322 13.9204 55.72 15.5882 56.9282 17.7273C58.1363 19.8664 58.7403 22.3499 58.7403 25.1779C58.7403 28.0059 58.1185 30.5256 56.8751 32.7373C55.6669 34.9126 53.9791 36.6166 51.8116 37.8493C49.6442 39.0821 47.1214 39.6984 44.2433 39.6984ZM44.2433 34.2056C45.6645 34.2056 46.9435 33.8431 48.0807 33.118C49.2179 32.3566 50.106 31.3051 50.7457 29.9637C51.3851 28.5859 51.7051 26.9725 51.7051 25.1235C51.7051 22.4043 50.9945 20.2652 49.5732 18.7062C48.1873 17.1472 46.4107 16.3677 44.2433 16.3677C42.0758 16.3677 40.2814 17.1472 38.8602 18.7062C37.4389 20.2652 36.7283 22.4043 36.7283 25.1235C36.7283 26.9725 37.048 28.5859 37.6877 29.9637C38.3627 31.3051 39.2511 32.3566 40.3523 33.118C41.4895 33.8431 42.7864 34.2056 44.2433 34.2056Z" fill="#D23030"/>
<path d="M21.3727 39.1564V32.9023L21.9057 33.0111C21.4438 35.0414 20.3245 36.6731 18.5479 37.9058C16.7712 39.1022 14.6571 39.7004 12.2053 39.7004C9.71807 39.7004 7.55061 39.1204 5.70294 37.96C3.89079 36.7636 2.48726 35.0958 1.49236 32.9567C0.497454 30.8176 0 28.2978 0 25.3973C0 22.4606 0.515219 19.9045 1.54565 17.7292C2.57609 15.5538 4.01517 13.8679 5.86284 12.6715C7.74605 11.475 9.93129 10.8768 12.4185 10.8768C14.9768 10.8768 17.091 11.5113 18.761 12.7803C20.4311 14.0129 21.4615 15.7351 21.8524 17.9467L21.1595 18.0011V0H27.9284V39.1564H21.3727ZM14.1774 34.0988C16.3448 34.0988 18.0682 33.3374 19.3473 31.8147C20.662 30.2556 21.3194 28.0803 21.3194 25.2885C21.3194 22.4968 20.662 20.3396 19.3473 18.8169C18.0326 17.2941 16.2916 16.5327 14.1241 16.5327C11.9921 16.5327 10.2688 17.3123 8.95413 18.8712C7.63946 20.394 6.98208 22.5512 6.98208 25.3429C6.98208 28.1347 7.63946 30.2919 8.95413 31.8147C10.2688 33.3374 12.0099 34.0988 14.1774 34.0988Z" fill="#D23030"/>
<path d="M136.918 10.1436C136.918 8.17589 138.597 11.2887 136.668 11.2887C134.74 11.2887 137.417 7.41244 137.417 9.38011C137.417 11.3477 134.74 10.1436 136.668 10.1436V12.9428C133.225 12.9428 130.434 10.0945 130.434 6.5808C130.434 3.06714 133.225 0.21875 136.668 0.21875C140.112 0.21875 142.904 3.06714 142.904 6.5808C142.904 10.0945 140.112 12.9428 136.668 12.9428V10.1436C138.597 10.1436 136.918 12.1112 136.918 10.1436Z" fill="#D23030"/>
<path d="M331.365 43.1225C331.759 42.6327 332.16 42.1473 332.569 41.6654C332.728 41.4782 332.886 41.2913 333.047 41.1047C333.231 40.8905 333.419 40.6785 333.607 40.4669C333.795 40.2545 333.985 40.0429 334.176 39.8331C334.267 39.7323 334.358 39.6309 334.45 39.5309C334.649 39.3134 334.851 39.0967 335.053 38.8814C335.1 38.8316 335.145 38.7818 335.192 38.7323C335.396 38.516 335.602 38.3003 335.81 38.0851C335.838 38.0563 335.866 38.0276 335.894 37.9989C335.999 37.892 336.1 37.7833 336.205 37.676C336.311 37.5687 336.416 37.4643 336.522 37.3585C336.55 37.3298 336.578 37.3011 336.606 37.2723C336.817 37.0607 337.028 36.8494 337.241 36.6414C337.289 36.5938 337.338 36.5476 337.387 36.5C337.598 36.2935 337.81 36.088 338.023 35.8851C338.122 35.7917 338.221 35.6982 338.32 35.6051C338.526 35.4106 338.733 35.2164 338.94 35.0248C339.148 34.8329 339.356 34.6409 339.566 34.4529C339.748 34.289 339.932 34.1274 340.115 33.9658C340.588 33.5484 341.064 33.1393 341.543 32.7369C341.628 32.6653 341.713 32.5947 341.798 32.5245C342.023 32.337 342.25 32.1521 342.477 31.9684C349.713 26.1035 357.692 21.9368 365.799 19.5306C357.068 20.4367 348.467 23.6066 340.905 29.0199C340.717 29.155 340.529 29.2901 340.342 29.4274C340.237 29.5049 340.131 29.5804 340.026 29.6582C339.382 30.1388 338.746 30.637 338.118 31.1506C337.817 31.3969 337.519 31.6477 337.222 31.9011C337.091 32.0121 336.964 32.1275 336.834 32.2398C335.775 33.1646 334.741 34.1363 333.738 35.1599C332.735 36.1835 331.783 37.2393 330.876 38.3189C330.765 38.4505 330.653 38.5818 330.544 38.7149C330.295 39.0171 330.05 39.3218 329.809 39.6291C329.304 40.2691 328.817 40.9185 328.346 41.5756C328.27 41.6829 328.196 41.7902 328.12 41.8982C327.985 42.0894 327.853 42.2814 327.721 42.4731C322.416 50.188 319.31 58.9651 318.422 67.8709C320.781 59.6011 324.864 51.46 330.611 44.0753C330.791 43.8436 330.973 43.6123 331.156 43.3829C331.225 43.296 331.294 43.2091 331.364 43.1229L331.365 43.1225Z" fill="#D23030"/>
<path d="M313.195 39.672C312.516 39.672 311.98 39.4855 311.588 39.112C311.196 38.739 311 38.219 311 37.552V22.0322C311 18.5389 312.058 15.8055 314.175 13.8322C316.318 11.8589 319.258 10.8722 322.996 10.8722C325.452 10.8722 327.582 11.3255 329.386 12.2322C331.189 13.1122 332.561 14.3922 333.502 16.0722C334.469 17.7522 334.952 19.7389 334.952 22.0322V37.552C334.952 38.219 334.756 38.739 334.364 39.112C333.972 39.4855 333.436 39.672 332.757 39.672C332.077 39.672 331.317 40.1917 330.899 39.8182C330.507 39.4182 330.522 38.192 330.522 37.552V21.9122C330.522 19.5389 329.869 17.7122 328.562 16.4322C327.255 15.1522 325.4 14.5122 322.996 14.5122C320.591 14.5122 318.723 15.1655 317.39 16.4722C316.083 17.7522 315.43 19.5655 315.43 21.9122V37.552C315.43 38.192 315.221 38.712 314.803 39.112C314.411 39.4855 313.875 39.672 313.195 39.672Z" fill="#D23030"/>
<path d="M293.371 39.672C290.471 39.672 287.922 39.072 285.727 37.872C283.558 36.672 281.885 34.9789 280.709 32.7922C279.533 30.6055 278.945 28.0989 278.945 25.2722C278.945 22.4455 279.533 19.9389 280.709 17.7522C281.885 15.5655 283.558 13.8722 285.727 12.6722C287.922 11.4722 290.471 10.8722 293.371 10.8722C296.272 10.8722 298.807 11.4722 300.977 12.6722C303.172 13.8722 304.858 15.5655 306.034 17.7522C307.21 19.9389 307.798 22.4455 307.798 25.2722C307.798 28.0989 307.21 30.6055 306.034 32.7922C304.858 34.9789 303.172 36.672 300.977 37.872C298.807 39.072 296.272 39.672 293.371 39.672ZM293.371 36.0322C296.429 36.0322 298.847 35.0722 300.624 33.1522C302.401 31.2322 303.289 28.6055 303.289 25.2722C303.289 21.9122 302.375 19.2855 300.545 17.3922C298.742 15.4722 296.272 14.5122 293.136 14.5122C291.15 14.5122 289.425 14.9522 287.962 15.8322C286.498 16.7122 285.374 17.9655 284.59 19.5922C283.806 21.2189 283.414 23.1122 283.414 25.2722C283.414 27.4855 283.819 29.4055 284.63 31.0322C285.44 32.6322 286.59 33.8722 288.079 34.7522C289.569 35.6055 291.333 36.0322 293.371 36.0322Z" fill="#D23030"/>
<path d="M256.865 39.2726C255.323 39.2726 254.095 38.8991 253.181 38.1526C252.292 37.3791 251.848 36.3392 251.848 35.0326C251.848 34.0459 252.03 33.1926 252.396 32.4726C252.788 31.7259 253.507 30.9392 254.553 30.1126L270.233 17.7126C270.625 17.3926 270.9 17.1126 271.056 16.8726C271.239 16.6059 271.331 16.2859 271.331 15.9126C271.331 15.1926 270.834 14.8326 269.841 14.8326H254.945C254.265 14.8326 253.703 14.6859 253.259 14.3926C252.815 14.0726 252.592 13.6326 252.592 13.0726C252.592 12.4859 252.815 12.0459 253.259 11.7526C253.703 11.4326 254.265 11.2726 254.945 11.2726H270.782C272.35 11.2726 273.579 11.6459 274.467 12.3926C275.355 13.1126 275.8 14.1526 275.8 15.5126C275.8 16.5792 275.617 17.4592 275.251 18.1526C274.885 18.8192 274.167 19.5659 273.095 20.3926L257.414 32.8326C257.022 33.1259 256.735 33.4192 256.552 33.7126C256.395 33.9792 256.317 34.2992 256.317 34.6726C256.317 35.3659 256.931 35.7126 258.159 35.7126H273.761C274.441 35.7126 275.003 35.8726 275.447 36.1926C275.891 36.486 276.113 36.9126 276.113 37.4726C276.113 38.0591 275.891 38.5126 275.447 38.8326C275.003 39.126 274.441 39.2726 273.761 39.2726H256.865Z" fill="#D23030"/>
<path d="M244.016 39.672C243.336 39.672 242.787 39.4855 242.369 39.112C241.977 38.739 241.781 38.219 241.781 37.552V12.9922C241.781 12.3255 241.977 11.8055 242.369 11.4322C242.787 11.0589 243.336 10.8722 244.016 10.8722C244.669 10.8722 245.205 11.0722 245.623 11.4722C246.041 11.8455 246.25 12.3522 246.25 12.9922V37.552C246.25 38.192 246.041 38.712 245.623 39.112C245.205 39.4855 244.669 39.672 244.016 39.672Z" fill="#D23030"/>
<path d="M212.039 16.8727C212.039 15.1394 212.536 13.7794 213.529 12.7927C214.522 11.7794 215.92 11.2727 217.723 11.2727H224.819C228.608 11.2727 231.457 12.0461 233.365 13.5927C235.299 15.1394 236.266 17.4194 236.266 20.4327C236.266 23.2861 235.416 25.4994 233.718 27.0727C232.019 28.646 229.667 29.4327 226.661 29.4327L233.169 36.1527C233.587 36.5793 233.796 37.0462 233.796 37.5527C233.796 38.1127 233.535 38.6192 233.012 39.0727C232.515 39.4462 232.032 39.6327 231.561 39.6327C230.908 39.6327 230.281 39.3127 229.68 38.6727L221.055 29.5527H216.626V37.5127C216.626 38.1793 216.404 38.7127 215.959 39.1127C215.541 39.4862 214.992 39.6727 214.313 39.6727C213.607 39.6727 213.045 39.4862 212.627 39.1127C212.235 38.7127 212.039 38.1793 212.039 37.5127V16.8727ZM224.78 25.8727C227.288 25.8727 229.053 25.4727 230.072 24.6727C231.117 23.8461 231.64 22.4327 231.64 20.4327C231.64 18.4861 231.078 17.0861 229.954 16.2327C228.831 15.3794 227.106 14.9527 224.78 14.9527H218.39C217.841 14.9527 217.41 15.1394 217.096 15.5127C216.782 15.8594 216.626 16.3527 216.626 16.9927V25.8727H224.78Z" fill="#D23030"/>
<path d="M193.262 39.672C190.362 39.672 187.813 39.072 185.618 37.872C183.449 36.672 181.776 34.9789 180.6 32.7922C179.424 30.6055 178.836 28.0989 178.836 25.2722C178.836 22.4455 179.424 19.9389 180.6 17.7522C181.776 15.5655 183.449 13.8722 185.618 12.6722C187.813 11.4722 190.362 10.8722 193.262 10.8722C196.163 10.8722 198.698 11.4722 200.868 12.6722C203.063 13.8722 204.748 15.5655 205.924 17.7522C207.1 19.9389 207.689 22.4455 207.689 25.2722C207.689 28.0989 207.1 30.6055 205.924 32.7922C204.748 34.9789 203.063 36.672 200.868 37.872C198.698 39.072 196.163 39.672 193.262 39.672ZM193.262 36.0322C196.32 36.0322 198.737 35.0722 200.515 33.1522C202.292 31.2322 203.18 28.6055 203.18 25.2722C203.18 21.9122 202.266 19.2855 200.436 17.3922C198.633 15.4722 196.163 14.5122 193.027 14.5122C191.041 14.5122 189.316 14.9522 187.853 15.8322C186.389 16.7122 185.265 17.9655 184.481 19.5922C183.697 21.2189 183.305 23.1122 183.305 25.2722C183.305 27.4855 183.71 29.4055 184.521 31.0322C185.331 32.6322 186.481 33.8722 187.97 34.7522C189.46 35.6055 191.224 36.0322 193.262 36.0322Z" fill="#D23030"/>
<path d="M152.602 39.672C151.922 39.672 151.386 39.4855 150.994 39.112C150.602 38.739 150.406 38.219 150.406 37.552V12.9922C150.406 12.3255 150.602 11.8055 150.994 11.4322C151.386 11.0589 151.922 10.8722 152.602 10.8722C153.281 10.8722 153.817 11.0722 154.209 11.4722C154.627 11.8455 154.836 12.3522 154.836 12.9922V23.1122H169.968V12.9922C169.968 12.3522 170.164 11.8455 170.556 11.4722C170.974 11.0722 171.523 10.8722 172.202 10.8722C172.882 10.8722 173.418 11.0589 173.81 11.4322C174.228 11.8055 174.437 12.3255 174.437 12.9922V37.552C174.437 38.219 174.228 38.739 173.81 39.112C173.418 39.4855 172.882 39.672 172.202 39.672C171.523 39.672 170.974 39.4855 170.556 39.112C170.164 38.712 169.968 38.192 169.968 37.552V26.6722H154.836V37.552C154.836 38.192 154.627 38.712 154.209 39.112C153.817 39.4855 153.281 39.672 152.602 39.672Z" fill="#D23030"/>
</g>
<defs>
<clipPath id="clip0_148_501">
<rect width="366" height="68" fill="white"/>
</clipPath>
</defs>
</svg>
